<?xml version="1.0" encoding="UTF-8"?> <svg xmlns="http://www.w3.org/2000/svg" width="109" height="29" viewBox="0 0 109 29" fill="none"><path d="M10.1094 28.5198H23.9194L22.2494 25.0098H11.8394L10.1094 28.5198Z" fill="#025072"></path><path d="M13.4492 21.6801H20.6592L17.1192 14.1201L13.4492 21.6801Z" fill="#025072"></path><path d="M52 0H0V28.52H4.76L14.24 10.65H20.46L29.74 28.53H34.62C31.19 27.32 28.94 24.74 28.94 20.25C28.94 13.38 33.39 10.4 40.04 10.4C44.56 10.4 49.33 11.8 49.51 16.6H44.11C44.04 14.63 42.29 13.9 40.06 13.9C35.86 13.9 34.34 16.52 34.34 19.77C34.34 23.74 36.54 25.89 40.74 25.89C41.99 25.89 43.41 25.66 44.47 25.44V22.34H39.7V18.99H49.27V28.52H52V14.25H58.02V28.49H63.23V14.25H70.12V10.58H51.99V0H52Z" fill="#025072"></path><path d="M76.8506 21.2401H86.4706V17.5701H76.8506V14.2501H87.0206V10.5801H71.6406V28.4901H87.2506V24.8101H76.8506V21.2401Z" fill="#025072"></path><path d="M100.47 18.6101L108.3 10.5801H102.03L94.7901 18.4901V10.5801H89.5801V28.4901H94.7901V19.2601H94.8401L102.13 28.4901H108.87L100.47 18.6101Z" fill="#025072"></path></svg> 