<?xml version="1.0" encoding="UTF-8"?> <svg xmlns="http://www.w3.org/2000/svg" id="Artwork" viewBox="0 0 592.17 208.76"><polygon points="232.24 74.46 232.24 96.25 209.38 96.25 209.38 74.46 199.24 74.46 199.24 130.2 209.38 130.2 209.38 105.92 232.24 105.92 232.24 130.2 242.39 130.2 242.39 74.46 232.24 74.46"></polygon><polygon points="251.97 130.2 251.97 74.46 290.01 74.46 290.01 83.65 262.09 83.65 262.09 96.65 286.47 96.65 286.47 105.76 262.09 105.76 262.09 121 290.01 121 290.01 130.2 251.97 130.2"></polygon><polygon points="331.9 130.2 319.41 109.92 306.92 130.2 296 130.2 313.52 101.81 296.14 74.46 307.22 74.46 319.71 93.97 331.84 74.46 342.84 74.46 325.7 101.9 343.06 130.2 331.9 130.2"></polygon><path d="M369.5,86.89l-7.93,23.52h15.87l-7.94-23.52h0ZM384.21,130.2l-3.62-10.67h-22.17l-3.59,10.67h-10.21l19.57-55.73h11.06l19.57,55.73h-10.6Z"></path><path d="M480.58,86.34c-2.21-2.35-5.62-3.68-8.84-3.68s-6.6,1.33-8.79,3.68c-3.84,4.02-4.01,10.94-4.01,16.05s.16,11.95,4.01,15.95c2.19,2.35,5.59,3.7,8.79,3.7s6.62-1.33,8.84-3.7c3.84-4.01,4.01-10.84,4.01-15.95s-.16-12.03-4.01-16.05h0ZM487.77,124.92c-4.22,4.25-10.06,6.29-16.02,6.29s-11.76-2.05-16.02-6.29c-6.05-6.05-7.08-13.43-7.08-22.55s1.03-16.59,7.08-22.64c4.26-4.25,10.07-6.29,16.02-6.29s11.8,2.05,16.02,6.29c6.05,6.05,7.08,13.52,7.08,22.64s-1.02,16.5-7.08,22.55Z"></path><polygon points="536.73 130.2 512.6 91.91 512.6 130.2 502.62 130.2 502.62 74.46 513.38 74.46 537.19 112.19 537.19 74.46 547.17 74.46 547.17 130.2 536.73 130.2"></polygon><path d="M441.67,99.65v10.69c0,12.62-9.13,20.89-21.68,20.89-8.75,0-15.73-3.18-20.07-11.06-3.01-5.56-3.64-11.61-3.64-17.83,0-8.5.94-16.06,7.23-22.37,4.28-4.28,10.55-6.51,16.56-6.51,9.45,0,16.94,4.67,20.08,12.37l-8.81,5.08c-.51-1.71-1.4-3.38-2.72-4.79-2.29-2.46-5.11-3.56-8.63-3.56-4.95,0-9.37,2.67-11.38,7.2-1.79,4.04-2.05,8.23-2.05,12.59,0,5.23.68,12.36,4.41,16.24,2.53,2.77,6.5,3.55,9.02,3.55,3.52,0,6.26-1.09,8.56-3.55,2.21-2.37,3.21-5.46,3.3-8.22.02-.73,0-1.51,0-2.29h-13.26v-8.42h23.09Z"/></svg> 